<svg xmlns="http://www.w3.org/2000/svg" xmlns:xlink="http://www.w3.org/1999/xlink" width="100" zoomAndPan="magnify" viewBox="0 0 75 52.499999" height="70" preserveAspectRatio="xMidYMid meet" version="1.0"><defs><g/><clipPath id="0063c19f3c"><path d="M 7 0 L 69.445312 0 L 69.445312 52.003906 L 7 52.003906 Z M 7 0 " clip-rule="nonzero"/></clipPath></defs><path fill="#d8b035" d="M 39.902344 16.328125 L 42.59375 16.328125 L 42.59375 13.558594 C 42.621094 13.558594 40.03125 13.710938 39.902344 16.328125 Z M 39.902344 16.328125 " fill-opacity="1" fill-rule="nonzero"/><path fill="#d8b035" d="M 39.902344 16.988281 L 42.621094 16.988281 L 42.621094 19.730469 L 39.902344 19.730469 Z M 39.902344 16.988281 " fill-opacity="1" fill-rule="nonzero"/><path fill="#d8b035" d="M 43.128906 13.558594 L 43.128906 16.328125 L 45.820312 16.328125 C 45.71875 13.710938 43.128906 13.558594 43.128906 13.558594 Z M 43.128906 13.558594 " fill-opacity="1" fill-rule="nonzero"/><path fill="#d8b035" d="M 43.128906 16.988281 L 45.84375 16.988281 L 45.84375 19.730469 L 43.128906 19.730469 Z M 43.128906 16.988281 " fill-opacity="1" fill-rule="nonzero"/><g clip-path="url(#0063c19f3c)"><path fill="#d8b035" d="M 43.355469 0 L 36.167969 8.886719 L 36.167969 5.535156 L 33.503906 5.535156 L 33.503906 12.1875 L 26.039062 21.40625 L 42.847656 9.117188 L 65.777344 26.15625 C 44.90625 19.679688 18.777344 23.109375 10.167969 32.707031 C 0.367188 44.363281 18.21875 52.003906 18.21875 52.003906 C 10.242188 45.074219 10.574219 38.292969 15.21875 33.773438 C 22.128906 27.425781 30.457031 26.15625 34.542969 25.34375 C 52.117188 22.296875 65.347656 26.765625 67.960938 27.753906 L 68.113281 27.855469 C 35.609375 19.90625 21.238281 31.84375 21.238281 31.84375 C 45.3125 21.40625 69.5625 28.972656 69.5625 28.972656 Z M 43.355469 0 " fill-opacity="1" fill-rule="nonzero"/></g><g fill="#d8b035" fill-opacity="1"><g transform="translate(16.668103, 43.636184)"><g><path d="M 6.703125 0 L 4.8125 0 L 4.8125 -2.828125 L 2.640625 -2.828125 L 2.640625 0 L 0.75 0 L 0.75 -6.9375 L 2.640625 -6.9375 L 2.640625 -4.359375 L 4.8125 -4.359375 L 4.8125 -6.9375 L 6.703125 -6.9375 Z M 6.703125 0 "/></g></g></g><g fill="#d8b035" fill-opacity="1"><g transform="translate(24.599761, 43.636184)"><g><path d="M 7.234375 -3.484375 C 7.234375 -2.316406 6.945312 -1.425781 6.375 -0.8125 C 5.8125 -0.207031 4.976562 0.09375 3.875 0.09375 C 2.78125 0.09375 1.941406 -0.207031 1.359375 -0.8125 C 0.785156 -1.425781 0.5 -2.316406 0.5 -3.484375 C 0.5 -4.640625 0.785156 -5.519531 1.359375 -6.125 C 1.929688 -6.738281 2.769531 -7.046875 3.875 -7.046875 C 4.976562 -7.046875 5.8125 -6.742188 6.375 -6.140625 C 6.945312 -5.535156 7.234375 -4.648438 7.234375 -3.484375 Z M 2.46875 -3.484375 C 2.46875 -2.140625 2.9375 -1.46875 3.875 -1.46875 C 4.34375 -1.46875 4.691406 -1.628906 4.921875 -1.953125 C 5.148438 -2.273438 5.265625 -2.785156 5.265625 -3.484375 C 5.265625 -4.171875 5.144531 -4.679688 4.90625 -5.015625 C 4.675781 -5.347656 4.332031 -5.515625 3.875 -5.515625 C 2.9375 -5.515625 2.46875 -4.835938 2.46875 -3.484375 Z M 2.46875 -3.484375 "/></g></g></g><g fill="#d8b035" fill-opacity="1"><g transform="translate(32.830383, 43.636184)"><g><path d="M 6.640625 -6.9375 L 6.640625 -2.765625 C 6.640625 -1.859375 6.382812 -1.15625 5.875 -0.65625 C 5.363281 -0.15625 4.625 0.09375 3.65625 0.09375 C 2.707031 0.09375 1.976562 -0.144531 1.46875 -0.625 C 0.96875 -1.113281 0.71875 -1.8125 0.71875 -2.71875 L 0.71875 -6.9375 L 2.59375 -6.9375 L 2.59375 -2.859375 C 2.59375 -2.367188 2.679688 -2.015625 2.859375 -1.796875 C 3.046875 -1.578125 3.320312 -1.46875 3.6875 -1.46875 C 4.0625 -1.46875 4.335938 -1.578125 4.515625 -1.796875 C 4.691406 -2.015625 4.78125 -2.375 4.78125 -2.875 L 4.78125 -6.9375 Z M 6.640625 -6.9375 "/></g></g></g><g fill="#d8b035" fill-opacity="1"><g transform="translate(40.671876, 43.636184)"><g><path d="M 5.28125 -2.109375 C 5.28125 -1.679688 5.171875 -1.296875 4.953125 -0.953125 C 4.734375 -0.617188 4.414062 -0.359375 4 -0.171875 C 3.59375 0.00390625 3.113281 0.09375 2.5625 0.09375 C 2.101562 0.09375 1.71875 0.0625 1.40625 0 C 1.09375 -0.0625 0.765625 -0.175781 0.421875 -0.34375 L 0.421875 -2.015625 C 0.785156 -1.828125 1.160156 -1.679688 1.546875 -1.578125 C 1.929688 -1.472656 2.285156 -1.421875 2.609375 -1.421875 C 2.878906 -1.421875 3.078125 -1.46875 3.203125 -1.5625 C 3.335938 -1.664062 3.40625 -1.796875 3.40625 -1.953125 C 3.40625 -2.046875 3.378906 -2.125 3.328125 -2.1875 C 3.273438 -2.257812 3.191406 -2.332031 3.078125 -2.40625 C 2.960938 -2.476562 2.65625 -2.628906 2.15625 -2.859375 C 1.707031 -3.066406 1.367188 -3.265625 1.140625 -3.453125 C 0.910156 -3.648438 0.738281 -3.875 0.625 -4.125 C 0.519531 -4.375 0.46875 -4.664062 0.46875 -5 C 0.46875 -5.644531 0.703125 -6.144531 1.171875 -6.5 C 1.640625 -6.851562 2.28125 -7.03125 3.09375 -7.03125 C 3.8125 -7.03125 4.539062 -6.867188 5.28125 -6.546875 L 4.71875 -5.09375 C 4.0625 -5.382812 3.5 -5.53125 3.03125 -5.53125 C 2.789062 -5.53125 2.613281 -5.488281 2.5 -5.40625 C 2.382812 -5.320312 2.328125 -5.21875 2.328125 -5.09375 C 2.328125 -4.957031 2.394531 -4.832031 2.53125 -4.71875 C 2.675781 -4.613281 3.0625 -4.421875 3.6875 -4.140625 C 4.289062 -3.867188 4.707031 -3.578125 4.9375 -3.265625 C 5.164062 -2.960938 5.28125 -2.578125 5.28125 -2.109375 Z M 5.28125 -2.109375 "/></g></g></g><g fill="#d8b035" fill-opacity="1"><g transform="translate(46.767045, 43.636184)"><g><path d="M 4.875 0 L 0.75 0 L 0.75 -6.9375 L 4.875 -6.9375 L 4.875 -5.4375 L 2.625 -5.4375 L 2.625 -4.34375 L 4.703125 -4.34375 L 4.703125 -2.84375 L 2.625 -2.84375 L 2.625 -1.53125 L 4.875 -1.53125 Z M 4.875 0 "/></g></g></g><g fill="#d8b035" fill-opacity="1"><g transform="translate(52.586977, 43.636184)"><g><path d="M 5.6875 0 L 0.296875 0 L 0.296875 -1.15625 L 3.296875 -5.421875 L 0.359375 -5.421875 L 0.359375 -6.9375 L 5.625 -6.9375 L 5.625 -5.78125 L 2.609375 -1.515625 L 5.6875 -1.515625 Z M 5.6875 0 "/></g></g></g><g fill="#d8b035" fill-opacity="1"><g transform="translate(59.00958, 43.636184)"><g><path d="M 4.875 0 L 0.75 0 L 0.75 -6.9375 L 4.875 -6.9375 L 4.875 -5.4375 L 2.625 -5.4375 L 2.625 -4.34375 L 4.703125 -4.34375 L 4.703125 -2.84375 L 2.625 -2.84375 L 2.625 -1.53125 L 4.875 -1.53125 Z M 4.875 0 "/></g></g></g><g fill="#d8b035" fill-opacity="1"><g transform="translate(64.82951, 43.636184)"><g><path d="M 4.875 0 L 0.75 0 L 0.75 -6.9375 L 4.875 -6.9375 L 4.875 -5.4375 L 2.625 -5.4375 L 2.625 -4.34375 L 4.703125 -4.34375 L 4.703125 -2.84375 L 2.625 -2.84375 L 2.625 -1.53125 L 4.875 -1.53125 Z M 4.875 0 "/></g></g></g></svg>