<svg xmlns="http://www.w3.org/2000/svg" xmlns:xlink="http://www.w3.org/1999/xlink" width="100" zoomAndPan="magnify" viewBox="0 0 75 52.499999" height="70" preserveAspectRatio="xMidYMid meet" version="1.0"><defs><g/></defs><g fill="#ffffff" fill-opacity="1"><g transform="translate(2.415659, 49.118742)"><g><path d="M 7.796875 -5.828125 L 7.3125 -5.828125 L 7.3125 -1.5625 L 7.796875 -1.5625 L 7.796875 0 L 4.203125 0 L 4.203125 -1.5625 L 4.65625 -1.5625 L 4.65625 -3.125 L 3.328125 -3.125 L 3.328125 -1.5625 L 3.78125 -1.5625 L 3.78125 0 L 0.1875 0 L 0.1875 -1.5625 L 0.671875 -1.5625 L 0.671875 -5.828125 L 0.1875 -5.828125 L 0.1875 -7.390625 L 3.78125 -7.390625 L 3.78125 -5.828125 L 3.328125 -5.828125 L 3.328125 -4.390625 L 4.65625 -4.390625 L 4.65625 -5.828125 L 4.203125 -5.828125 L 4.203125 -7.390625 L 7.796875 -7.390625 Z M 7.796875 -5.828125 "/></g></g></g><g fill="#ffffff" fill-opacity="1"><g transform="translate(12.360418, 49.118742)"><g><path d="M 3.765625 0.140625 C 2.609375 0.140625 1.710938 -0.160156 1.078125 -0.765625 C 0.453125 -1.378906 0.140625 -2.359375 0.140625 -3.703125 C 0.140625 -5.035156 0.453125 -6.003906 1.078125 -6.609375 C 1.710938 -7.222656 2.609375 -7.53125 3.765625 -7.53125 C 4.921875 -7.53125 5.8125 -7.222656 6.4375 -6.609375 C 7.070312 -6.003906 7.390625 -5.035156 7.390625 -3.703125 C 7.390625 -2.359375 7.070312 -1.378906 6.4375 -0.765625 C 5.8125 -0.160156 4.921875 0.140625 3.765625 0.140625 Z M 3.765625 -1.5625 C 3.972656 -1.5625 4.128906 -1.617188 4.234375 -1.734375 C 4.347656 -1.847656 4.40625 -2.023438 4.40625 -2.265625 L 4.40625 -5.125 C 4.40625 -5.363281 4.347656 -5.539062 4.234375 -5.65625 C 4.128906 -5.769531 3.972656 -5.828125 3.765625 -5.828125 C 3.546875 -5.828125 3.378906 -5.769531 3.265625 -5.65625 C 3.160156 -5.539062 3.109375 -5.363281 3.109375 -5.125 L 3.109375 -2.265625 C 3.109375 -2.015625 3.160156 -1.832031 3.265625 -1.71875 C 3.378906 -1.613281 3.546875 -1.5625 3.765625 -1.5625 Z M 3.765625 -1.5625 "/></g></g></g><g fill="#ffffff" fill-opacity="1"><g transform="translate(21.849795, 49.118742)"><g><path d="M 3.75 0.140625 C 2.75 0.140625 1.976562 -0.078125 1.4375 -0.515625 C 0.894531 -0.953125 0.625 -1.664062 0.625 -2.65625 L 0.625 -5.828125 L 0.15625 -5.828125 L 0.15625 -7.390625 L 3.671875 -7.390625 L 3.671875 -5.828125 L 3.28125 -5.828125 L 3.28125 -2.171875 C 3.28125 -1.960938 3.328125 -1.804688 3.421875 -1.703125 C 3.515625 -1.609375 3.65625 -1.5625 3.84375 -1.5625 C 4.019531 -1.5625 4.15625 -1.609375 4.25 -1.703125 C 4.34375 -1.804688 4.390625 -1.960938 4.390625 -2.171875 L 4.390625 -5.828125 L 4.015625 -5.828125 L 4.015625 -7.390625 L 7.265625 -7.390625 L 7.265625 -5.828125 L 6.796875 -5.828125 L 6.796875 -2.65625 C 6.796875 -1.664062 6.53125 -0.953125 6 -0.515625 C 5.476562 -0.078125 4.726562 0.140625 3.75 0.140625 Z M 3.75 0.140625 "/></g></g></g><g fill="#ffffff" fill-opacity="1"><g transform="translate(31.234821, 49.118742)"><g><path d="M 3.140625 0.140625 C 2.523438 0.140625 1.945312 0.0859375 1.40625 -0.015625 C 0.863281 -0.128906 0.445312 -0.25 0.15625 -0.375 L 0.15625 -2.265625 L 2.25 -2.265625 C 2.25 -2.066406 2.289062 -1.921875 2.375 -1.828125 C 2.46875 -1.742188 2.632812 -1.703125 2.875 -1.703125 C 3.0625 -1.703125 3.195312 -1.726562 3.28125 -1.78125 C 3.375 -1.84375 3.421875 -1.9375 3.421875 -2.0625 C 3.421875 -2.164062 3.378906 -2.253906 3.296875 -2.328125 C 3.210938 -2.398438 3.070312 -2.472656 2.875 -2.546875 L 2.046875 -2.828125 C 1.347656 -3.097656 0.84375 -3.410156 0.53125 -3.765625 C 0.226562 -4.128906 0.078125 -4.617188 0.078125 -5.234375 C 0.078125 -5.984375 0.320312 -6.550781 0.8125 -6.9375 C 1.300781 -7.332031 2.117188 -7.53125 3.265625 -7.53125 C 3.816406 -7.53125 4.332031 -7.472656 4.8125 -7.359375 C 5.300781 -7.242188 5.695312 -7.097656 6 -6.921875 L 6 -5.21875 L 4.09375 -5.21875 C 4.09375 -5.53125 3.894531 -5.6875 3.5 -5.6875 C 3.3125 -5.6875 3.175781 -5.660156 3.09375 -5.609375 C 3.019531 -5.566406 2.984375 -5.488281 2.984375 -5.375 C 2.984375 -5.257812 3.03125 -5.171875 3.125 -5.109375 C 3.21875 -5.046875 3.367188 -4.976562 3.578125 -4.90625 L 4.40625 -4.625 C 5.070312 -4.394531 5.554688 -4.097656 5.859375 -3.734375 C 6.171875 -3.367188 6.328125 -2.894531 6.328125 -2.3125 C 6.328125 -1.507812 6.054688 -0.898438 5.515625 -0.484375 C 4.972656 -0.0664062 4.179688 0.140625 3.140625 0.140625 Z M 3.140625 0.140625 "/></g></g></g><g fill="#ffffff" fill-opacity="1"><g transform="translate(39.604726, 49.118742)"><g><path d="M 0.1875 0 L 0.1875 -1.5625 L 0.671875 -1.5625 L 0.671875 -5.828125 L 0.1875 -5.828125 L 0.1875 -7.390625 L 6.609375 -7.390625 L 6.609375 -4.515625 L 4.46875 -4.515625 L 4.46875 -5.828125 L 3.328125 -5.828125 L 3.328125 -4.328125 L 4.15625 -4.328125 L 4.15625 -3.25 L 3.328125 -3.25 L 3.328125 -1.5625 L 4.46875 -1.5625 L 4.46875 -3.0625 L 6.609375 -3.0625 L 6.609375 0 Z M 0.1875 0 "/></g></g></g><g fill="#ffffff" fill-opacity="1"><g transform="translate(48.34463, 49.118742)"><g><path d="M 4.515625 -2.34375 L 6.40625 -2.34375 L 6.40625 0 L 0.140625 0 L 0.140625 -1.375 L 3.0625 -5.828125 L 2.078125 -5.828125 L 2.078125 -5.046875 L 0.1875 -5.046875 L 0.1875 -7.390625 L 6.265625 -7.390625 L 6.265625 -6.015625 L 3.34375 -1.5625 L 4.515625 -1.5625 Z M 4.515625 -2.34375 "/></g></g></g><g fill="#ffffff" fill-opacity="1"><g transform="translate(56.856848, 49.118742)"><g><path d="M 0.1875 0 L 0.1875 -1.5625 L 0.671875 -1.5625 L 0.671875 -5.828125 L 0.1875 -5.828125 L 0.1875 -7.390625 L 6.609375 -7.390625 L 6.609375 -4.515625 L 4.46875 -4.515625 L 4.46875 -5.828125 L 3.328125 -5.828125 L 3.328125 -4.328125 L 4.15625 -4.328125 L 4.15625 -3.25 L 3.328125 -3.25 L 3.328125 -1.5625 L 4.46875 -1.5625 L 4.46875 -3.0625 L 6.609375 -3.0625 L 6.609375 0 Z M 0.1875 0 "/></g></g></g><g fill="#ffffff" fill-opacity="1"><g transform="translate(65.596751, 49.118742)"><g><path d="M 0.1875 0 L 0.1875 -1.5625 L 0.671875 -1.5625 L 0.671875 -5.828125 L 0.1875 -5.828125 L 0.1875 -7.390625 L 6.609375 -7.390625 L 6.609375 -4.515625 L 4.46875 -4.515625 L 4.46875 -5.828125 L 3.328125 -5.828125 L 3.328125 -4.328125 L 4.15625 -4.328125 L 4.15625 -3.25 L 3.328125 -3.25 L 3.328125 -1.5625 L 4.46875 -1.5625 L 4.46875 -3.0625 L 6.609375 -3.0625 L 6.609375 0 Z M 0.1875 0 "/></g></g></g><g fill="#caa007" fill-opacity="1"><g transform="translate(24.667208, 30.159356)"><g><path d="M 24.515625 -18.359375 L 23.015625 -18.359375 L 23.015625 -4.90625 L 24.515625 -4.90625 L 24.515625 0 L 13.21875 0 L 13.21875 -4.90625 L 14.640625 -4.90625 L 14.640625 -9.828125 L 10.46875 -9.828125 L 10.46875 -4.90625 L 11.890625 -4.90625 L 11.890625 0 L 0.59375 0 L 0.59375 -4.90625 L 2.09375 -4.90625 L 2.09375 -18.359375 L 0.59375 -18.359375 L 0.59375 -23.25 L 11.890625 -23.25 L 11.890625 -18.359375 L 10.46875 -18.359375 L 10.46875 -13.8125 L 14.640625 -13.8125 L 14.640625 -18.359375 L 13.21875 -18.359375 L 13.21875 -23.25 L 24.515625 -23.25 Z M 24.515625 -18.359375 "/></g></g></g><path stroke-linecap="butt" transform="matrix(0.742924, 0, 0, 0.742924, 19.394496, 0.832665)" fill="none" stroke-linejoin="miter" d="M 0.0000480637 0.498651 L 48.741123 0.498651 " stroke="#d8b035" stroke-width="1" stroke-opacity="1" stroke-miterlimit="4"/><path stroke-linecap="butt" transform="matrix(0, 0.742924, -0.742924, 0, 20.153639, 1.20665)" fill="none" stroke-linejoin="miter" d="M 0.000513052 0.501247 L 48.741588 0.501247 " stroke="#d8b035" stroke-width="1" stroke-opacity="1" stroke-miterlimit="4"/><path stroke-linecap="butt" transform="matrix(0, 0.742924, -0.742924, 0, 55.584238, 0.816446)" fill="none" stroke-linejoin="miter" d="M -0.0000539787 0.502474 L 48.741021 0.502474 " stroke="#d8b035" stroke-width="1" stroke-opacity="1" stroke-miterlimit="4"/><path stroke-linecap="butt" transform="matrix(0.742924, 0, 0, 0.742924, 19.394496, 36.653467)" fill="none" stroke-linejoin="miter" d="M 0.0000480637 0.497992 L 48.741123 0.497992 " stroke="#d8b035" stroke-width="1" stroke-opacity="1" stroke-miterlimit="4"/></svg>